# xmcd
#
# Track frame offsets:
# 150
# 1907
# 15477
# 26334
#
# Disc length: 547 seconds
#
# Revision: 1
# Processed by: cddbd v1.4PL0 Copyright (c) Steve Scherf et al.
# Submitted via: Easy CD Ripper 1.45
#
DISCID=1a022104
DTITLE=arlene curley - Too Good For You
DYEAR=2003
DGENRE=Country
TTITLE0=too good for you mp3
TTITLE1=arlene curley - 
TTITLE2=arlene curley - 
TTITLE3=arlene curley - 
EXTD=
EXTT0=
EXTT1=
EXTT2=
EXTT3=
PLAYORDER=
